<?xml version="1.0" encoding="utf-8"?><svg viewBox="0 0 18 18" xmlns="http://www.w3.org/2000/svg" xmlns:xlink="http://www.w3.org/1999/xlink"><style>:root>svg{display:none}:root>svg:target{display:block}</style><svg viewBox="0 0 9 18" id="facebook" xmlns="http://www.w3.org/2000/svg"><path d="M6.953 2.89h1.553V.187A19.927 19.927 0 006.243.066c-2.239 0-3.772 1.409-3.772 3.997v2.382H0V9.47h2.47v7.607H5.5V9.47h2.37l.377-3.023H5.499V4.363c0-.874.236-1.472 1.454-1.472z"/></svg><svg viewBox="0 0 18 18" id="instagram" xmlns="http://www.w3.org/2000/svg"><path fill-rule="evenodd" clip-rule="evenodd" d="M5.625 0h6.428a5.358 5.358 0 015.357 5.357v6.429a5.358 5.358 0 01-5.357 5.357H5.625a5.358 5.358 0 01-5.357-5.357V5.357A5.358 5.358 0 015.625 0zm6.428 15.536a3.754 3.754 0 003.75-3.75V5.357a3.754 3.754 0 00-3.75-3.75H5.625a3.754 3.754 0 00-3.75 3.75v6.429a3.754 3.754 0 003.75 3.75h6.428z"/><path fill-rule="evenodd" clip-rule="evenodd" d="M4.553 8.572a4.286 4.286 0 118.572 0 4.286 4.286 0 01-8.572 0zm1.607 0a2.682 2.682 0 002.678 2.678 2.682 2.682 0 002.679-2.678 2.682 2.682 0 00-2.679-2.679A2.682 2.682 0 006.16 8.572z"/><circle cx="13.446" cy="3.964" r=".571"/></svg><svg viewBox="0 0 17 17" id="linkedin" xmlns="http://www.w3.org/2000/svg"><g clip-path="url(#ca)"><path d="M4.017 16.572H.78V5.936h3.33v10.636h-.093zM2.352 4.456C1.335 4.456.41 3.624.41 2.514c0-1.018.833-1.942 1.942-1.942 1.018 0 1.943.832 1.943 1.942 0 1.11-.833 1.942-1.943 1.942zM16.41 16.572h-3.33v-5.18c0-1.202 0-2.774-1.664-2.774-1.757 0-1.942 1.295-1.942 2.682v5.271h-3.33V5.937H9.29v1.48c.462-.833 1.48-1.665 3.144-1.665 3.33 0 3.977 2.22 3.977 5.086v5.735z"/></g><defs><clipPath id="ca"><path transform="translate(.41 .572)" d="M0 0h16v16H0z"/></clipPath></defs></svg><svg viewBox="0 0 16 16" id="next" xmlns="http://www.w3.org/2000/svg"><path fill-rule="evenodd" clip-rule="evenodd" d="M8.705 15.295a.997.997 0 01-1.411-1.41L12.17 9H1a1 1 0 010-2h11.17L7.294 2.115A.997.997 0 018.705.705L16 8l-7.295 7.295z"/></svg><svg viewBox="0 0 16 16" id="prev" xmlns="http://www.w3.org/2000/svg"><path fill-rule="evenodd" clip-rule="evenodd" d="M7.295 15.295a.997.997 0 001.411-1.41L3.83 9H15a1 1 0 100-2H3.83l4.876-4.885A.997.997 0 007.295.705L0 8l7.295 7.295z" fill-opacity=".7"/></svg><svg viewBox="0 0 18 15" id="twitter" xmlns="http://www.w3.org/2000/svg"><path d="M17.268 2.374a7.166 7.166 0 01-1.98.543 3.417 3.417 0 001.511-1.9 6.867 6.867 0 01-2.179.832A3.435 3.435 0 008.676 4.2c0 .273.023.534.08.784a9.727 9.727 0 01-7.083-3.595 3.441 3.441 0 001.056 4.593 3.393 3.393 0 01-1.553-.423v.038A3.452 3.452 0 003.93 8.972a3.43 3.43 0 01-.9.113c-.22 0-.443-.012-.651-.058a3.469 3.469 0 003.21 2.393 6.905 6.905 0 01-4.26 1.466c-.282 0-.552-.012-.822-.047a9.674 9.674 0 005.271 1.542c6.324 0 9.781-5.238 9.781-9.778 0-.152-.005-.299-.012-.445a6.856 6.856 0 001.722-1.784z"/></svg></svg>